<?xml version="1.0" encoding="utf-8"?>
<svg viewBox="0.7095 4.4789 55.3809 53.9116" width="55.381" height="53.912" xmlns="http://www.w3.org/2000/svg">
  <defs>
    <style type="text/css">
	.st0{fill: hsl(0 0% 3.9%);}
	.st1{fill: #FFFFFF;}
	.st2{fill:none;}
	.st3{font-family:'Whitney-Book';}
	.st4{font-size:14px;}
  @media (prefers-color-scheme: dark) {
    .st0 {
      fill: hsl(0 0% 98%)
    }
  }
</style>
  </defs>
  <path class="st0" d="M30.6,14.5c-0.6,0.6-1.4,0.9-2.2,0.9c-0.8,0-1.6-0.3-2.2-0.9l-7.6-7.4c-0.2-0.2-0.5-0.4-0.7-0.5  c0.6-2.1,3.4-2.9,5.2-1.2l4.2,4.1c0.2,0.1,0.3,0.3,0.5,0.3c0.2,0.1,0.4,0.1,0.6,0.1s0.4,0,0.6-0.1s0.4-0.2,0.5-0.3l4.2-4.1  c1.7-1.7,4.5-0.8,5.2,1.3c-0.3,0.1-0.5,0.3-0.7,0.5L30.6,14.5z" transform="matrix(1, 0, 0, 1, -1.7763568394002505e-15, -3.552713678800501e-15)"/>
  <path class="st0" d="M11.1,29.2c0.6,0.6,0.9,1.3,0.9,2.1s-0.3,1.6-0.9,2.1l-7.6,7.4c-0.2,0.2-0.4,0.5-0.6,0.7c-2.1-0.6-3-3.4-1.3-5  l4.3-4c0.3-0.3,0.5-0.7,0.5-1.1s-0.2-0.8-0.5-1.1l-4.2-4.1c-1.7-1.7-0.8-4.4,1.3-5c0.1,0.3,0.3,0.5,0.6,0.7L11.1,29.2z" transform="matrix(1, 0, 0, 1, -1.7763568394002505e-15, -3.552713678800501e-15)"/>
  <path class="st0" d="M26.2,48.3c0.6-0.6,1.4-0.9,2.2-0.9c0.8,0,1.6,0.3,2.2,0.9l7.6,7.4c0.2,0.2,0.5,0.4,0.7,0.5  c-0.6,2.1-3.4,2.9-5.2,1.3l-4.2-4.1c-0.3-0.3-0.7-0.5-1.1-0.5s-0.8,0.2-1.1,0.5l-4.2,4.1c-1.7,1.7-4.5,0.8-5.2-1.3  c0.3-0.1,0.5-0.3,0.7-0.5L26.2,48.3z" transform="matrix(1, 0, 0, 1, -1.7763568394002505e-15, -3.552713678800501e-15)"/>
  <path class="st0" d="M45.7,33.5c-0.6-0.6-0.9-1.3-0.9-2.1c0-0.8,0.3-1.6,0.9-2.1l7.6-7.4c0.2-0.2,0.4-0.5,0.6-0.7  c2.1,0.6,3,3.4,1.3,5l-4.3,4.1c-0.2,0.1-0.3,0.3-0.4,0.5c-0.1,0.2-0.1,0.4-0.1,0.6s0,0.4,0.1,0.6s0.2,0.4,0.4,0.5l4.2,4.1  c1.7,1.7,0.8,4.4-1.3,5c-0.1-0.3-0.3-0.5-0.6-0.7L45.7,33.5z" transform="matrix(1, 0, 0, 1, -1.7763568394002505e-15, -3.552713678800501e-15)"/>
  <path class="st0" d="M14.6,41.8c0.8,0,1.6,0.3,2.2,0.9c0.6,0.6,0.9,1.3,0.9,2.1v10.5c0,0.3,0,0.6,0.1,0.9c-2,1-4.6-0.3-4.6-2.7v-5.8  c0-0.4-0.2-0.8-0.5-1.1s-0.7-0.5-1.1-0.5h-6c-2.4,0-3.8-2.5-2.7-4.5c0.3,0.2,0.7,0.2,1,0.2C3.9,41.8,14.6,41.8,14.6,41.8z" transform="matrix(1, 0, 0, 1, -1.7763568394002505e-15, -3.552713678800501e-15)"/>
  <path class="st0" d="M17.7,17.9c0,0.8-0.3,1.6-0.9,2.1c-0.6,0.6-1.4,0.9-2.2,0.9H3.9c-0.3,0-0.6,0-0.9,0.1c-1.1-1.9,0.3-4.5,2.7-4.5  h6c0.2,0,0.4,0,0.6-0.1c0.2-0.1,0.4-0.2,0.5-0.3c0.2-0.1,0.3-0.3,0.4-0.5c0.1-0.2,0.1-0.4,0.1-0.6V9.2c0-2.4,2.6-3.7,4.6-2.7  c-0.1,0.3-0.1,0.6-0.1,0.9L17.7,17.9L17.7,17.9z" transform="matrix(1, 0, 0, 1, -1.7763568394002505e-15, -3.552713678800501e-15)"/>
  <path class="st0" d="M42.2,20.9c-0.8,0-1.6-0.3-2.2-0.9c-0.6-0.6-0.9-1.3-0.9-2.1V7.4c0-0.3,0-0.6-0.1-0.9c2-1,4.6,0.3,4.6,2.7V15  c0,0.2,0,0.4,0.1,0.6c0.1,0.2,0.2,0.4,0.4,0.5s0.3,0.3,0.5,0.3c0.2,0.1,0.4,0.1,0.6,0.1h6c2.4,0,3.8,2.5,2.7,4.5  c-0.3-0.1-0.6-0.1-0.9-0.1H42.2z" transform="matrix(1, 0, 0, 1, -1.7763568394002505e-15, -3.552713678800501e-15)"/>
  <path class="st0" d="M39.1,44.8c0-0.8,0.3-1.6,0.9-2.1c0.6-0.6,1.4-0.9,2.2-0.9h10.7c0.3,0,0.6,0,0.9-0.1c1.1,1.9-0.3,4.5-2.7,4.5  h-6c-0.2,0-0.4,0-0.6,0.1s-0.4,0.2-0.5,0.3c-0.2,0.1-0.3,0.3-0.4,0.5c-0.1,0.2-0.1,0.4-0.1,0.6v5.8c0,2.4-2.6,3.7-4.6,2.7  c0.1-0.3,0.1-0.6,0.1-0.9L39.1,44.8L39.1,44.8z" transform="matrix(1, 0, 0, 1, -1.7763568394002505e-15, -3.552713678800501e-15)"/>
</svg>